<svg xmlns="http://www.w3.org/2000/svg" xmlns:xlink="http://www.w3.org/1999/xlink" width="150" zoomAndPan="magnify" viewBox="0 0 112.5 82.499998" height="110" preserveAspectRatio="xMidYMid meet" version="1.0"><defs><g/></defs><g fill="#ff00ff" fill-opacity="1"><g transform="translate(25.274703, 39.346983)"><g><path d="M 3.628906 -4.25 C 4.289062 -4.25 4.710938 -3.90625 4.734375 -3.359375 L 6.632812 -3.359375 C 6.542969 -4.660156 5.382812 -5.742188 3.5625 -5.742188 C 1.691406 -5.742188 0.445312 -4.40625 0.445312 -2.800781 C 0.445312 -1.195312 1.617188 0.128906 3.5625 0.128906 C 5.269531 0.128906 6.402344 -0.839844 6.59375 -2.085938 L 4.734375 -2.085938 C 4.671875 -1.578125 4.214844 -1.324219 3.628906 -1.324219 C 2.738281 -1.324219 2.480469 -2.136719 2.480469 -2.789062 C 2.480469 -3.425781 2.761719 -4.25 3.628906 -4.25 Z M 3.628906 -4.25 "/></g></g></g><g fill="#ff00ff" fill-opacity="1"><g transform="translate(32.046739, 39.346983)"><g><path d="M 3.933594 -4.199219 C 4.226562 -4.199219 4.507812 -4.113281 4.695312 -3.882812 L 4.722656 -3.882812 L 4.722656 -5.613281 C 4.570312 -5.691406 4.316406 -5.742188 4.148438 -5.742188 C 3.449219 -5.742188 2.964844 -5.347656 2.671875 -4.925781 L 2.671875 -5.613281 L 0.765625 -5.613281 L 0.765625 0 L 2.671875 0 L 2.671875 -2.800781 C 2.671875 -3.476562 3.21875 -4.199219 3.933594 -4.199219 Z M 3.933594 -4.199219 "/></g></g></g><g fill="#ff00ff" fill-opacity="1"><g transform="translate(36.64204, 39.346983)"><g><path d="M 0.660156 -7.535156 C 0.660156 -6.925781 1.160156 -6.414062 1.78125 -6.414062 C 2.394531 -6.414062 2.902344 -6.925781 2.902344 -7.535156 C 2.902344 -8.160156 2.394531 -8.65625 1.78125 -8.65625 C 1.160156 -8.65625 0.660156 -8.160156 0.660156 -7.535156 Z M 2.738281 0 L 2.738281 -5.613281 L 0.828125 -5.613281 L 0.828125 0 Z M 2.738281 0 "/></g></g></g><g fill="#ff00ff" fill-opacity="1"><g transform="translate(39.951663, 39.346983)"><g><path d="M 5.15625 -2.800781 C 5.15625 -2.0625 4.582031 -1.398438 3.820312 -1.398438 C 3.054688 -1.398438 2.480469 -2.0625 2.480469 -2.800781 C 2.480469 -3.539062 3.054688 -4.199219 3.820312 -4.199219 C 4.582031 -4.199219 5.15625 -3.539062 5.15625 -2.800781 Z M 7.066406 -5.601562 L 5.15625 -5.601562 L 5.15625 -4.925781 C 4.660156 -5.539062 3.945312 -5.742188 3.234375 -5.742188 C 1.640625 -5.742188 0.445312 -4.351562 0.445312 -2.800781 C 0.445312 -1.246094 1.640625 0.128906 3.234375 0.128906 C 3.945312 0.128906 4.773438 -0.101562 5.15625 -0.675781 L 5.15625 0 L 7.066406 0 Z M 7.066406 -5.601562 "/></g></g></g><g fill="#ff00ff" fill-opacity="1"><g transform="translate(47.525658, 39.346983)"><g><path d="M 3.933594 -4.199219 C 4.226562 -4.199219 4.507812 -4.113281 4.695312 -3.882812 L 4.722656 -3.882812 L 4.722656 -5.613281 C 4.570312 -5.691406 4.316406 -5.742188 4.148438 -5.742188 C 3.449219 -5.742188 2.964844 -5.347656 2.671875 -4.925781 L 2.671875 -5.613281 L 0.765625 -5.613281 L 0.765625 0 L 2.671875 0 L 2.671875 -2.800781 C 2.671875 -3.476562 3.21875 -4.199219 3.933594 -4.199219 Z M 3.933594 -4.199219 "/></g></g></g><g fill="#ff00ff" fill-opacity="1"><g transform="translate(52.120961, 39.346983)"><g/></g></g><g fill="#ff00ff" fill-opacity="1"><g transform="translate(55.048692, 39.346983)"><g><path d="M 3.628906 -4.25 C 4.289062 -4.25 4.710938 -3.90625 4.734375 -3.359375 L 6.632812 -3.359375 C 6.542969 -4.660156 5.382812 -5.742188 3.5625 -5.742188 C 1.691406 -5.742188 0.445312 -4.40625 0.445312 -2.800781 C 0.445312 -1.195312 1.617188 0.128906 3.5625 0.128906 C 5.269531 0.128906 6.402344 -0.839844 6.59375 -2.085938 L 4.734375 -2.085938 C 4.671875 -1.578125 4.214844 -1.324219 3.628906 -1.324219 C 2.738281 -1.324219 2.480469 -2.136719 2.480469 -2.789062 C 2.480469 -3.425781 2.761719 -4.25 3.628906 -4.25 Z M 3.628906 -4.25 "/></g></g></g><g fill="#ff00ff" fill-opacity="1"><g transform="translate(61.820729, 39.346983)"><g><path d="M 3.652344 -1.324219 C 2.621094 -1.324219 2.34375 -2.074219 2.34375 -2.789062 C 2.34375 -3.488281 2.648438 -4.238281 3.652344 -4.238281 C 4.644531 -4.238281 4.953125 -3.488281 4.953125 -2.789062 C 4.953125 -2.074219 4.671875 -1.324219 3.652344 -1.324219 Z M 3.652344 -5.726562 C 1.898438 -5.726562 0.445312 -4.558594 0.445312 -2.800781 C 0.445312 -1.003906 1.859375 0.113281 3.652344 0.113281 C 5.433594 0.113281 6.847656 -1.003906 6.847656 -2.800781 C 6.847656 -4.558594 5.398438 -5.726562 3.652344 -5.726562 Z M 3.652344 -5.726562 "/></g></g></g><g fill="#ff00ff" fill-opacity="1"><g transform="translate(68.860092, 39.346983)"><g><path d="M 6.503906 -3.183594 C 6.503906 -4.710938 5.894531 -5.742188 4.390625 -5.742188 C 3.652344 -5.742188 3.054688 -5.410156 2.671875 -4.925781 L 2.671875 -5.613281 L 0.765625 -5.613281 L 0.765625 0 L 2.671875 0 L 2.671875 -2.800781 C 2.671875 -3.5625 3.144531 -4.199219 3.742188 -4.199219 C 4.339844 -4.199219 4.59375 -3.84375 4.59375 -3.183594 L 4.59375 0 L 6.503906 0 Z M 6.503906 -3.183594 "/></g></g></g><g fill="#ff00ff" fill-opacity="1"><g transform="translate(75.683053, 39.346983)"><g><path d="M 3.167969 -4.136719 L 4.1875 -4.136719 L 4.1875 -5.613281 L 3.167969 -5.613281 L 3.167969 -7.753906 L 1.273438 -7.753906 L 1.273438 -5.613281 L 0.253906 -5.613281 L 0.253906 -4.136719 L 1.273438 -4.136719 L 1.273438 0 L 3.167969 0 Z M 3.167969 -4.136719 "/></g></g></g><g fill="#ff00ff" fill-opacity="1"><g transform="translate(79.871003, 39.346983)"><g><path d="M 5.15625 -2.800781 C 5.15625 -2.0625 4.582031 -1.398438 3.820312 -1.398438 C 3.054688 -1.398438 2.480469 -2.0625 2.480469 -2.800781 C 2.480469 -3.539062 3.054688 -4.199219 3.820312 -4.199219 C 4.582031 -4.199219 5.15625 -3.539062 5.15625 -2.800781 Z M 7.066406 -5.601562 L 5.15625 -5.601562 L 5.15625 -4.925781 C 4.660156 -5.539062 3.945312 -5.742188 3.234375 -5.742188 C 1.640625 -5.742188 0.445312 -4.351562 0.445312 -2.800781 C 0.445312 -1.246094 1.640625 0.128906 3.234375 0.128906 C 3.945312 0.128906 4.773438 -0.101562 5.15625 -0.675781 L 5.15625 0 L 7.066406 0 Z M 7.066406 -5.601562 "/></g></g></g><g fill="#00ffff" fill-opacity="1"><g transform="translate(24.79726, 39.346983)"><g><path d="M 3.628906 -4.25 C 4.289062 -4.25 4.710938 -3.90625 4.734375 -3.359375 L 6.632812 -3.359375 C 6.542969 -4.660156 5.382812 -5.742188 3.5625 -5.742188 C 1.691406 -5.742188 0.445312 -4.40625 0.445312 -2.800781 C 0.445312 -1.195312 1.617188 0.128906 3.5625 0.128906 C 5.269531 0.128906 6.402344 -0.839844 6.59375 -2.085938 L 4.734375 -2.085938 C 4.671875 -1.578125 4.214844 -1.324219 3.628906 -1.324219 C 2.738281 -1.324219 2.480469 -2.136719 2.480469 -2.789062 C 2.480469 -3.425781 2.761719 -4.25 3.628906 -4.25 Z M 3.628906 -4.25 "/></g></g></g><g fill="#00ffff" fill-opacity="1"><g transform="translate(31.569296, 39.346983)"><g><path d="M 3.933594 -4.199219 C 4.226562 -4.199219 4.507812 -4.113281 4.695312 -3.882812 L 4.722656 -3.882812 L 4.722656 -5.613281 C 4.570312 -5.691406 4.316406 -5.742188 4.148438 -5.742188 C 3.449219 -5.742188 2.964844 -5.347656 2.671875 -4.925781 L 2.671875 -5.613281 L 0.765625 -5.613281 L 0.765625 0 L 2.671875 0 L 2.671875 -2.800781 C 2.671875 -3.476562 3.21875 -4.199219 3.933594 -4.199219 Z M 3.933594 -4.199219 "/></g></g></g><g fill="#00ffff" fill-opacity="1"><g transform="translate(36.164597, 39.346983)"><g><path d="M 0.660156 -7.535156 C 0.660156 -6.925781 1.160156 -6.414062 1.78125 -6.414062 C 2.394531 -6.414062 2.902344 -6.925781 2.902344 -7.535156 C 2.902344 -8.160156 2.394531 -8.65625 1.78125 -8.65625 C 1.160156 -8.65625 0.660156 -8.160156 0.660156 -7.535156 Z M 2.738281 0 L 2.738281 -5.613281 L 0.828125 -5.613281 L 0.828125 0 Z M 2.738281 0 "/></g></g></g><g fill="#00ffff" fill-opacity="1"><g transform="translate(39.47422, 39.346983)"><g><path d="M 5.15625 -2.800781 C 5.15625 -2.0625 4.582031 -1.398438 3.820312 -1.398438 C 3.054688 -1.398438 2.480469 -2.0625 2.480469 -2.800781 C 2.480469 -3.539062 3.054688 -4.199219 3.820312 -4.199219 C 4.582031 -4.199219 5.15625 -3.539062 5.15625 -2.800781 Z M 7.066406 -5.601562 L 5.15625 -5.601562 L 5.15625 -4.925781 C 4.660156 -5.539062 3.945312 -5.742188 3.234375 -5.742188 C 1.640625 -5.742188 0.445312 -4.351562 0.445312 -2.800781 C 0.445312 -1.246094 1.640625 0.128906 3.234375 0.128906 C 3.945312 0.128906 4.773438 -0.101562 5.15625 -0.675781 L 5.15625 0 L 7.066406 0 Z M 7.066406 -5.601562 "/></g></g></g><g fill="#00ffff" fill-opacity="1"><g transform="translate(47.048215, 39.346983)"><g><path d="M 3.933594 -4.199219 C 4.226562 -4.199219 4.507812 -4.113281 4.695312 -3.882812 L 4.722656 -3.882812 L 4.722656 -5.613281 C 4.570312 -5.691406 4.316406 -5.742188 4.148438 -5.742188 C 3.449219 -5.742188 2.964844 -5.347656 2.671875 -4.925781 L 2.671875 -5.613281 L 0.765625 -5.613281 L 0.765625 0 L 2.671875 0 L 2.671875 -2.800781 C 2.671875 -3.476562 3.21875 -4.199219 3.933594 -4.199219 Z M 3.933594 -4.199219 "/></g></g></g><g fill="#00ffff" fill-opacity="1"><g transform="translate(51.643517, 39.346983)"><g/></g></g><g fill="#00ffff" fill-opacity="1"><g transform="translate(54.571249, 39.346983)"><g><path d="M 3.628906 -4.25 C 4.289062 -4.25 4.710938 -3.90625 4.734375 -3.359375 L 6.632812 -3.359375 C 6.542969 -4.660156 5.382812 -5.742188 3.5625 -5.742188 C 1.691406 -5.742188 0.445312 -4.40625 0.445312 -2.800781 C 0.445312 -1.195312 1.617188 0.128906 3.5625 0.128906 C 5.269531 0.128906 6.402344 -0.839844 6.59375 -2.085938 L 4.734375 -2.085938 C 4.671875 -1.578125 4.214844 -1.324219 3.628906 -1.324219 C 2.738281 -1.324219 2.480469 -2.136719 2.480469 -2.789062 C 2.480469 -3.425781 2.761719 -4.25 3.628906 -4.25 Z M 3.628906 -4.25 "/></g></g></g><g fill="#00ffff" fill-opacity="1"><g transform="translate(61.343285, 39.346983)"><g><path d="M 3.652344 -1.324219 C 2.621094 -1.324219 2.34375 -2.074219 2.34375 -2.789062 C 2.34375 -3.488281 2.648438 -4.238281 3.652344 -4.238281 C 4.644531 -4.238281 4.953125 -3.488281 4.953125 -2.789062 C 4.953125 -2.074219 4.671875 -1.324219 3.652344 -1.324219 Z M 3.652344 -5.726562 C 1.898438 -5.726562 0.445312 -4.558594 0.445312 -2.800781 C 0.445312 -1.003906 1.859375 0.113281 3.652344 0.113281 C 5.433594 0.113281 6.847656 -1.003906 6.847656 -2.800781 C 6.847656 -4.558594 5.398438 -5.726562 3.652344 -5.726562 Z M 3.652344 -5.726562 "/></g></g></g><g fill="#00ffff" fill-opacity="1"><g transform="translate(68.382649, 39.346983)"><g><path d="M 6.503906 -3.183594 C 6.503906 -4.710938 5.894531 -5.742188 4.390625 -5.742188 C 3.652344 -5.742188 3.054688 -5.410156 2.671875 -4.925781 L 2.671875 -5.613281 L 0.765625 -5.613281 L 0.765625 0 L 2.671875 0 L 2.671875 -2.800781 C 2.671875 -3.5625 3.144531 -4.199219 3.742188 -4.199219 C 4.339844 -4.199219 4.59375 -3.84375 4.59375 -3.183594 L 4.59375 0 L 6.503906 0 Z M 6.503906 -3.183594 "/></g></g></g><g fill="#00ffff" fill-opacity="1"><g transform="translate(75.205609, 39.346983)"><g><path d="M 3.167969 -4.136719 L 4.1875 -4.136719 L 4.1875 -5.613281 L 3.167969 -5.613281 L 3.167969 -7.753906 L 1.273438 -7.753906 L 1.273438 -5.613281 L 0.253906 -5.613281 L 0.253906 -4.136719 L 1.273438 -4.136719 L 1.273438 0 L 3.167969 0 Z M 3.167969 -4.136719 "/></g></g></g><g fill="#00ffff" fill-opacity="1"><g transform="translate(79.393559, 39.346983)"><g><path d="M 5.15625 -2.800781 C 5.15625 -2.0625 4.582031 -1.398438 3.820312 -1.398438 C 3.054688 -1.398438 2.480469 -2.0625 2.480469 -2.800781 C 2.480469 -3.539062 3.054688 -4.199219 3.820312 -4.199219 C 4.582031 -4.199219 5.15625 -3.539062 5.15625 -2.800781 Z M 7.066406 -5.601562 L 5.15625 -5.601562 L 5.15625 -4.925781 C 4.660156 -5.539062 3.945312 -5.742188 3.234375 -5.742188 C 1.640625 -5.742188 0.445312 -4.351562 0.445312 -2.800781 C 0.445312 -1.246094 1.640625 0.128906 3.234375 0.128906 C 3.945312 0.128906 4.773438 -0.101562 5.15625 -0.675781 L 5.15625 0 L 7.066406 0 Z M 7.066406 -5.601562 "/></g></g></g><g fill="#814cef" fill-opacity="1"><g transform="translate(25.035982, 39.346983)"><g><path d="M 3.628906 -4.25 C 4.289062 -4.25 4.710938 -3.90625 4.734375 -3.359375 L 6.632812 -3.359375 C 6.542969 -4.660156 5.382812 -5.742188 3.5625 -5.742188 C 1.691406 -5.742188 0.445312 -4.40625 0.445312 -2.800781 C 0.445312 -1.195312 1.617188 0.128906 3.5625 0.128906 C 5.269531 0.128906 6.402344 -0.839844 6.59375 -2.085938 L 4.734375 -2.085938 C 4.671875 -1.578125 4.214844 -1.324219 3.628906 -1.324219 C 2.738281 -1.324219 2.480469 -2.136719 2.480469 -2.789062 C 2.480469 -3.425781 2.761719 -4.25 3.628906 -4.25 Z M 3.628906 -4.25 "/></g></g></g><g fill="#814cef" fill-opacity="1"><g transform="translate(31.808017, 39.346983)"><g><path d="M 3.933594 -4.199219 C 4.226562 -4.199219 4.507812 -4.113281 4.695312 -3.882812 L 4.722656 -3.882812 L 4.722656 -5.613281 C 4.570312 -5.691406 4.316406 -5.742188 4.148438 -5.742188 C 3.449219 -5.742188 2.964844 -5.347656 2.671875 -4.925781 L 2.671875 -5.613281 L 0.765625 -5.613281 L 0.765625 0 L 2.671875 0 L 2.671875 -2.800781 C 2.671875 -3.476562 3.21875 -4.199219 3.933594 -4.199219 Z M 3.933594 -4.199219 "/></g></g></g><g fill="#814cef" fill-opacity="1"><g transform="translate(36.403319, 39.346983)"><g><path d="M 0.660156 -7.535156 C 0.660156 -6.925781 1.160156 -6.414062 1.78125 -6.414062 C 2.394531 -6.414062 2.902344 -6.925781 2.902344 -7.535156 C 2.902344 -8.160156 2.394531 -8.65625 1.78125 -8.65625 C 1.160156 -8.65625 0.660156 -8.160156 0.660156 -7.535156 Z M 2.738281 0 L 2.738281 -5.613281 L 0.828125 -5.613281 L 0.828125 0 Z M 2.738281 0 "/></g></g></g><g fill="#814cef" fill-opacity="1"><g transform="translate(39.712942, 39.346983)"><g><path d="M 5.15625 -2.800781 C 5.15625 -2.0625 4.582031 -1.398438 3.820312 -1.398438 C 3.054688 -1.398438 2.480469 -2.0625 2.480469 -2.800781 C 2.480469 -3.539062 3.054688 -4.199219 3.820312 -4.199219 C 4.582031 -4.199219 5.15625 -3.539062 5.15625 -2.800781 Z M 7.066406 -5.601562 L 5.15625 -5.601562 L 5.15625 -4.925781 C 4.660156 -5.539062 3.945312 -5.742188 3.234375 -5.742188 C 1.640625 -5.742188 0.445312 -4.351562 0.445312 -2.800781 C 0.445312 -1.246094 1.640625 0.128906 3.234375 0.128906 C 3.945312 0.128906 4.773438 -0.101562 5.15625 -0.675781 L 5.15625 0 L 7.066406 0 Z M 7.066406 -5.601562 "/></g></g></g><g fill="#814cef" fill-opacity="1"><g transform="translate(47.286937, 39.346983)"><g><path d="M 3.933594 -4.199219 C 4.226562 -4.199219 4.507812 -4.113281 4.695312 -3.882812 L 4.722656 -3.882812 L 4.722656 -5.613281 C 4.570312 -5.691406 4.316406 -5.742188 4.148438 -5.742188 C 3.449219 -5.742188 2.964844 -5.347656 2.671875 -4.925781 L 2.671875 -5.613281 L 0.765625 -5.613281 L 0.765625 0 L 2.671875 0 L 2.671875 -2.800781 C 2.671875 -3.476562 3.21875 -4.199219 3.933594 -4.199219 Z M 3.933594 -4.199219 "/></g></g></g><g fill="#814cef" fill-opacity="1"><g transform="translate(51.882239, 39.346983)"><g/></g></g><g fill="#814cef" fill-opacity="1"><g transform="translate(54.809971, 39.346983)"><g><path d="M 3.628906 -4.25 C 4.289062 -4.25 4.710938 -3.90625 4.734375 -3.359375 L 6.632812 -3.359375 C 6.542969 -4.660156 5.382812 -5.742188 3.5625 -5.742188 C 1.691406 -5.742188 0.445312 -4.40625 0.445312 -2.800781 C 0.445312 -1.195312 1.617188 0.128906 3.5625 0.128906 C 5.269531 0.128906 6.402344 -0.839844 6.59375 -2.085938 L 4.734375 -2.085938 C 4.671875 -1.578125 4.214844 -1.324219 3.628906 -1.324219 C 2.738281 -1.324219 2.480469 -2.136719 2.480469 -2.789062 C 2.480469 -3.425781 2.761719 -4.25 3.628906 -4.25 Z M 3.628906 -4.25 "/></g></g></g><g fill="#814cef" fill-opacity="1"><g transform="translate(61.582007, 39.346983)"><g><path d="M 3.652344 -1.324219 C 2.621094 -1.324219 2.34375 -2.074219 2.34375 -2.789062 C 2.34375 -3.488281 2.648438 -4.238281 3.652344 -4.238281 C 4.644531 -4.238281 4.953125 -3.488281 4.953125 -2.789062 C 4.953125 -2.074219 4.671875 -1.324219 3.652344 -1.324219 Z M 3.652344 -5.726562 C 1.898438 -5.726562 0.445312 -4.558594 0.445312 -2.800781 C 0.445312 -1.003906 1.859375 0.113281 3.652344 0.113281 C 5.433594 0.113281 6.847656 -1.003906 6.847656 -2.800781 C 6.847656 -4.558594 5.398438 -5.726562 3.652344 -5.726562 Z M 3.652344 -5.726562 "/></g></g></g><g fill="#814cef" fill-opacity="1"><g transform="translate(68.62137, 39.346983)"><g><path d="M 6.503906 -3.183594 C 6.503906 -4.710938 5.894531 -5.742188 4.390625 -5.742188 C 3.652344 -5.742188 3.054688 -5.410156 2.671875 -4.925781 L 2.671875 -5.613281 L 0.765625 -5.613281 L 0.765625 0 L 2.671875 0 L 2.671875 -2.800781 C 2.671875 -3.5625 3.144531 -4.199219 3.742188 -4.199219 C 4.339844 -4.199219 4.59375 -3.84375 4.59375 -3.183594 L 4.59375 0 L 6.503906 0 Z M 6.503906 -3.183594 "/></g></g></g><g fill="#814cef" fill-opacity="1"><g transform="translate(75.444331, 39.346983)"><g><path d="M 3.167969 -4.136719 L 4.1875 -4.136719 L 4.1875 -5.613281 L 3.167969 -5.613281 L 3.167969 -7.753906 L 1.273438 -7.753906 L 1.273438 -5.613281 L 0.253906 -5.613281 L 0.253906 -4.136719 L 1.273438 -4.136719 L 1.273438 0 L 3.167969 0 Z M 3.167969 -4.136719 "/></g></g></g><g fill="#814cef" fill-opacity="1"><g transform="translate(79.632281, 39.346983)"><g><path d="M 5.15625 -2.800781 C 5.15625 -2.0625 4.582031 -1.398438 3.820312 -1.398438 C 3.054688 -1.398438 2.480469 -2.0625 2.480469 -2.800781 C 2.480469 -3.539062 3.054688 -4.199219 3.820312 -4.199219 C 4.582031 -4.199219 5.15625 -3.539062 5.15625 -2.800781 Z M 7.066406 -5.601562 L 5.15625 -5.601562 L 5.15625 -4.925781 C 4.660156 -5.539062 3.945312 -5.742188 3.234375 -5.742188 C 1.640625 -5.742188 0.445312 -4.351562 0.445312 -2.800781 C 0.445312 -1.246094 1.640625 0.128906 3.234375 0.128906 C 3.945312 0.128906 4.773438 -0.101562 5.15625 -0.675781 L 5.15625 0 L 7.066406 0 Z M 7.066406 -5.601562 "/></g></g></g></svg>